<svg width="210" height="53" viewBox="0 0 210 53" fill="none" xmlns="http://www.w3.org/2000/svg">
<g clip-path="url(#clip0_3_2)">
<path d="M53.8985 26.3233C53.8985 28.8408 52.8996 30.0775 50.7463 30.0775C48.6152 30.0775 47.6163 28.8629 47.6163 26.3233V0.485832H41.6892V26.1025C41.6892 31.9767 45.13 35.2008 50.7463 35.2008C56.3848 35.2008 59.8256 31.9767 59.8256 26.0804V0.485832H53.8985V26.3454V26.3233Z" fill="white"/>
<path fill-rule="evenodd" clip-rule="evenodd" d="M13.8298 16.695C16.7156 15.5687 17.9366 12.4992 17.9366 9.54C17.9366 3.71 15.1173 0.485832 8.7907 0.485832H0V34.715H9.34566C16.0941 34.715 18.6025 30.4529 18.6025 24.8217C18.6025 20.405 16.8266 18.02 13.8298 16.695ZM5.92706 5.32208H8.14693C10.7886 5.32208 12.0317 6.97833 12.0317 10.1583C12.0317 12.985 10.3002 14.5087 8.05814 14.5087H5.92706V5.32208ZM8.41332 29.9008H5.92706V19.345H7.83615C11.3436 19.345 12.6755 21.1117 12.6755 24.6008C12.6755 28.1121 11.5655 29.8567 8.41332 29.8567V29.9008Z" fill="white"/>
<path d="M71.3911 19.5437H79.0275V14.4204H71.3911V5.58708H81.3139V0.485833H65.4863V34.715H81.9799V29.6137H71.3911V19.5437ZM29.3467 0.485833H23.4197V34.715H38.648V29.6137H29.3245V0.441667L29.3467 0.485833ZM179.477 34.7371H185.359V0.485833H179.455V34.715L179.477 34.7371ZM165.403 0C159.209 0 156.346 3.93083 156.346 8.78917V26.4337C156.346 31.27 159.232 35.2008 165.425 35.2008C165.425 35.2008 168.666 35.0683 171.285 33.1029L174.393 35.2008V17.4458H164.781V22.0833H169.066V26.4558C169.066 30.2983 165.78 30.0996 165.78 30.0996H165.425C163.027 30.0996 162.273 28.8629 162.273 26.3012V8.92167C162.273 6.36 163.027 5.12333 165.425 5.12333C167.8 5.12333 168.577 6.36 168.577 8.92167V11.5717H174.482V8.78917C174.482 3.93083 171.618 0 165.403 0Z" fill="white"/>
<path fill-rule="evenodd" clip-rule="evenodd" d="M106.887 0C100.693 0 97.8298 3.93083 97.8298 8.78917V26.4337C97.8298 31.27 100.693 35.2008 106.887 35.2008C113.103 35.2008 115.966 31.27 115.966 26.4337V8.76708C115.966 3.93083 113.08 0 106.909 0H106.887ZM110.039 26.2792C110.039 28.8408 109.284 30.0775 106.887 30.0775C104.512 30.0775 103.757 28.8408 103.757 26.2792V8.92167C103.757 6.36 104.512 5.12333 106.887 5.12333C109.284 5.12333 110.039 6.36 110.039 8.92167V26.2792Z" fill="white"/>
<path d="M204.45 0.485832V20.7583L196.37 0.485832H191.02V34.715H196.348V14.4646L204.45 34.7592H209.778V0.485832H204.45ZM144.869 34.7371H150.796V0.485832H144.869V34.715V34.7371Z" fill="white"/>
<path fill-rule="evenodd" clip-rule="evenodd" d="M139.519 10.6C139.519 3.26833 136.123 0.485832 129.485 0.485832H121.205V34.715H127.11V20.7142C128.109 20.7142 129.108 20.67 130.085 20.5817L134.302 34.7592H140.363L135.368 19.2125C137.366 18.3292 139.519 16.0767 139.519 10.6ZM129.197 15.8337H127.11V5.3H129.197C132.393 5.3 133.592 6.47041 133.592 10.5558C133.592 14.6412 132.393 15.8337 129.197 15.8337Z" fill="white"/>
<path d="M0 52.7792V45.6683H5.50529V46.4192L5.1945 46.7283H1.06554V48.9146H4.46195V49.9746H1.06554V52.7792H0Z" fill="white"/>
<path fill-rule="evenodd" clip-rule="evenodd" d="M8.7907 51.2996C8.8351 52.1829 9.56765 52.8675 10.4778 52.8675H13.63C14.0678 52.8446 14.4788 52.6509 14.7739 52.3284C15.0689 52.0059 15.2243 51.5807 15.2061 51.145V47.17C15.1839 46.2867 14.4292 45.58 13.5412 45.58H10.389C10.1684 45.5885 9.9516 45.6405 9.75136 45.7331C9.55111 45.8257 9.37139 45.957 9.22265 46.1194C9.0739 46.2817 8.95911 46.4719 8.88495 46.6788C8.8108 46.8857 8.77876 47.1052 8.7907 47.3246V51.2996ZM9.85624 47.3688C9.85624 46.8829 10.0782 46.64 10.5888 46.64H13.408C13.9186 46.64 14.1406 46.8608 14.1406 47.3688V51.0788C14.1406 51.5867 13.9186 51.8075 13.408 51.8075H10.5888C10.1004 51.8075 9.85624 51.5867 9.85624 51.0788V47.3688ZM24.7294 52.7792L22.9091 50.1513H20.5338V52.7792H19.4683V45.6683H23.8636C24.0929 45.668 24.3198 45.7142 24.5305 45.804C24.7412 45.8938 24.9312 46.0254 25.0891 46.1907C25.247 46.356 25.3694 46.5516 25.4487 46.7656C25.5281 46.9795 25.5628 47.2073 25.5507 47.435V48.4288C25.5507 48.8704 25.4175 49.29 25.1068 49.6213C24.8659 49.8832 24.5469 50.0613 24.1966 50.1292L25.5951 52.1608V52.7792H24.7072H24.7294ZM23.7526 49.0913C24.241 49.0913 24.4852 48.8704 24.4852 48.3625V47.4792C24.4852 46.9713 24.2632 46.7283 23.7526 46.7283H20.5338V49.0913H23.7526Z" fill="white"/>
<path d="M36.4725 46.7283V52.7792H37.5381V46.7283H39.8023L40.1353 46.4192V45.6683H33.8975V46.7283H36.4725ZM48.9038 52.7792V49.6875H44.8414V52.7792H43.7315V45.6683H44.797V48.6275H48.9038V45.6683H49.9471V52.7792H48.8816H48.9038ZM54.1871 45.6683V52.7792H59.7368V51.7192H55.2748V49.6875H58.76V48.6275H55.2748V46.7283H59.4482L59.759 46.4192V45.6683H54.2093H54.1871Z" fill="white"/>
<path fill-rule="evenodd" clip-rule="evenodd" d="M73.5888 52.7792H69.1712V45.6683H73.5C73.7283 45.6678 73.9543 45.714 74.1639 45.8041C74.3734 45.8941 74.5622 46.0261 74.7183 46.1918C74.8745 46.3575 74.9947 46.5534 75.0715 46.7672C75.1483 46.9811 75.1801 47.2084 75.1649 47.435V47.8104C75.1649 48.4508 74.8763 48.8483 74.5655 49.0471C74.794 49.1936 74.9798 49.3971 75.1044 49.6374C75.2291 49.8776 75.2882 50.1462 75.2759 50.4163V51.0346C75.3203 51.9179 74.6099 52.735 73.6776 52.7792H73.5888ZM73.4556 51.7192C73.9662 51.7192 74.2104 51.4983 74.2104 50.9904V50.35C74.2104 49.8421 73.9662 49.6213 73.4556 49.6213H70.2368V51.6971H73.4778L73.4556 51.7192ZM73.3668 48.5833C73.8774 48.5833 74.0994 48.3625 74.0994 47.8546V47.4571C74.0994 46.9713 73.8774 46.7283 73.3668 46.7283H70.259V48.5833H73.3668Z" fill="white"/>
<path d="M79.4049 45.6683V52.7792H84.9545V51.7192H80.4704V49.6875H83.9778V48.6275H80.4704V46.7283H84.6438L84.9545 46.4192V45.6683H79.4049ZM94.1448 52.7792L89.9049 47.435V52.7792H88.8393V45.6683H89.8161L94.0782 51.0346V45.6683H95.1438V52.7792H94.1448ZM99.5835 45.6683V52.7792H105.133V51.7192H100.649V49.6875H104.134V48.6275H100.649V46.7283H104.822L105.133 46.4192V45.6683H99.5835ZM108.996 52.7792V45.6683H114.545V46.4192L114.212 46.7283H110.084V48.9146H113.48V49.9746H110.084V52.7792H108.996ZM118.186 45.6683H119.252V52.7792H118.186V45.6683ZM125.445 52.7792V46.7283H122.87V45.6683H129.086V46.4192L128.775 46.7283H126.511V52.7792H125.445Z" fill="white"/>
<path fill-rule="evenodd" clip-rule="evenodd" d="M137.499 51.2996C137.543 52.1829 138.276 52.8675 139.164 52.8675H142.338C142.774 52.8391 143.182 52.6438 143.476 52.3225C143.77 52.0013 143.927 51.5792 143.914 51.145V47.17C143.87 46.2867 143.137 45.58 142.249 45.58H139.097C138.654 45.6029 138.237 45.7989 137.938 46.1256C137.638 46.4522 137.481 46.883 137.499 47.3246V51.2996ZM138.564 47.3688C138.564 46.8829 138.786 46.64 139.297 46.64H142.116C142.627 46.64 142.849 46.8608 142.849 47.3688V51.0788C142.849 51.5867 142.627 51.8075 142.116 51.8075H139.297C138.786 51.8075 138.564 51.5867 138.564 51.0788V47.3688Z" fill="white"/>
<path d="M147.932 52.7792V45.6683H153.46V46.4192L153.127 46.7283H148.998V48.9146H152.394V49.9746H148.998V52.7792H147.932ZM166.912 45.6683H160.186V52.8675H166.934V50.9021H162.495V50.1954H165.691V48.3404H162.495V47.6117H166.202L166.934 46.905V45.6683H166.912Z" fill="white"/>
<path fill-rule="evenodd" clip-rule="evenodd" d="M169.754 51.7854L172.373 45.6683H175.37L178.012 51.7854V52.8675H175.792L175.437 51.7633H172.329L171.974 52.8675H169.754V51.7633V51.7854ZM174.748 49.9304L173.927 47.7221H173.816L172.995 49.9304H174.771H174.748ZM186.558 45.6683H180.875V52.8675H183.162V50.5046H184.449L186.403 52.8675H188.467V51.7633L187.069 50.2838C187.069 50.2838 188.312 50.085 188.312 48.7379V47.4129C188.312 46.3308 187.646 45.6683 186.558 45.6683ZM186.048 47.6117V48.5392H183.162V47.6117H186.048Z" fill="white"/>
<path d="M194.039 47.7221H191.397V45.6683H198.945V46.9933L198.212 47.7221H196.303V52.8675H194.039V47.7V47.7221ZM204.406 45.6683H202.142V52.8675H204.406V50.2838H207.514V52.8675H209.778V45.6683H207.514V48.23H204.406V45.6683Z" fill="white"/>
</g>
<defs>
<clipPath id="clip0_3_2">
<rect width="210" height="53" fill="white"/>
</clipPath>
</defs>
</svg>
